<svg width="1224" height="223" viewBox="0 0 1224 223" fill="white" xmlns="http://www.w3.org/2000/svg">
<path d="M103.675 209.2C83.6917 209.2 66.6417 205.167 52.525 197.1C38.5917 188.85 27.9583 177.3 20.625 162.45C13.475 147.6 9.9 130.275 9.9 110.475C9.9 90.3083 13.5667 72.7083 20.9 57.675C28.4167 42.6417 39.1417 31 53.075 22.75C67.0083 14.3167 83.7833 10.1 103.4 10.1C118.25 10.1 131.542 12.6667 143.275 17.8C155.008 22.75 164.45 30.175 171.6 40.075C178.933 49.7917 183.517 61.8 185.35 76.1H147.4C145.017 67.1167 140.158 60.0583 132.825 54.925C125.675 49.6083 116.142 46.95 104.225 46.95C91.025 46.95 80.4833 49.975 72.6 56.025C64.9 61.8917 59.3083 69.5917 55.825 79.125C52.3417 88.475 50.6 98.375 50.6 108.825C50.6 119.642 52.4333 129.908 56.1 139.625C59.7667 149.342 65.5417 157.225 73.425 163.275C81.4917 169.325 92.0333 172.35 105.05 172.35C112.75 172.35 119.625 171.25 125.675 169.05C131.725 166.667 136.675 163.275 140.525 158.875C144.558 154.475 147.308 149.25 148.775 143.2H188.1C186.45 157.317 181.683 169.325 173.8 179.225C165.917 189.125 155.925 196.642 143.825 201.775C131.725 206.725 118.342 209.2 103.675 209.2ZM203.188 207V12.3H241.688V78.85C245.905 73.9 250.58 70.05 255.713 67.3C261.03 64.55 266.347 62.625 271.663 61.525C277.163 60.2417 282.205 59.6 286.788 59.6C300.355 59.6 310.988 62.625 318.688 68.675C326.388 74.725 331.888 82.8833 335.188 93.15C338.488 103.417 340.138 114.692 340.138 126.975V207H301.638V132.475C301.638 128.075 301.18 123.675 300.263 119.275C299.53 114.875 298.155 110.842 296.138 107.175C294.122 103.325 291.28 100.3 287.613 98.1C283.947 95.7167 279.088 94.525 273.038 94.525C267.355 94.525 262.497 95.7167 258.463 98.1C254.43 100.483 251.13 103.692 248.563 107.725C246.18 111.575 244.438 115.883 243.338 120.65C242.238 125.417 241.688 130.183 241.688 134.95V207H203.188ZM407.367 208.925C400.767 208.925 394.351 208.1 388.117 206.45C382.067 204.617 376.659 201.867 371.892 198.2C367.126 194.533 363.367 189.95 360.617 184.45C357.867 178.95 356.492 172.533 356.492 165.2C356.492 155.3 358.509 147.417 362.542 141.55C366.576 135.5 371.984 130.917 378.767 127.8C385.551 124.683 393.342 122.575 402.142 121.475C411.126 120.375 420.384 119.825 429.917 119.825H450.817C450.817 114.508 449.809 109.833 447.792 105.8C445.959 101.583 443.117 98.375 439.267 96.175C435.417 93.7917 430.467 92.6 424.417 92.6C420.567 92.6 416.809 93.15 413.142 94.25C409.659 95.1667 406.726 96.5417 404.342 98.375C401.959 100.208 400.401 102.592 399.667 105.525H360.617C361.717 97.4583 364.284 90.5833 368.317 84.9C372.351 79.0333 377.392 74.2667 383.442 70.6C389.492 66.9333 396.092 64.275 403.242 62.625C410.576 60.7917 418.092 59.875 425.792 59.875C446.876 59.875 462.459 65.925 472.542 78.025C482.626 89.9417 487.667 106.9 487.667 128.9V207H453.017L452.467 188.3C447.884 194.717 442.659 199.392 436.792 202.325C431.109 205.258 425.609 207.092 420.292 207.825C414.976 208.558 410.667 208.925 407.367 208.925ZM416.167 178.4C422.584 178.4 428.451 177.117 433.767 174.55C439.084 171.983 443.301 168.5 446.417 164.1C449.534 159.7 451.092 154.75 451.092 149.25V145.675H424.692C420.842 145.675 417.084 145.858 413.417 146.225C409.934 146.592 406.726 147.325 403.792 148.425C401.042 149.342 398.842 150.9 397.192 153.1C395.542 155.3 394.717 158.233 394.717 161.9C394.717 165.567 395.634 168.683 397.467 171.25C399.484 173.633 402.142 175.467 405.442 176.75C408.742 177.85 412.317 178.4 416.167 178.4ZM509.491 207V62.075H547.991V207H509.491ZM528.741 47.5C521.591 47.5 515.816 45.3917 511.416 41.175C507.016 36.775 504.816 31.1833 504.816 24.4C504.816 17.25 507.108 11.475 511.691 7.07498C516.275 2.67499 522.05 0.474987 529.016 0.474987C535.433 0.474987 540.933 2.67499 545.516 7.07498C550.283 11.2917 552.666 16.975 552.666 24.125C552.666 31.0917 550.375 36.775 545.791 41.175C541.391 45.3917 535.708 47.5 528.741 47.5ZM658.81 209.2C638.826 209.2 621.776 205.167 607.66 197.1C593.726 188.85 583.093 177.3 575.76 162.45C568.61 147.6 565.035 130.275 565.035 110.475C565.035 90.3083 568.701 72.7083 576.035 57.675C583.551 42.6417 594.276 31 608.21 22.75C622.143 14.3167 638.918 10.1 658.535 10.1C673.385 10.1 686.676 12.6667 698.41 17.8C710.143 22.75 719.585 30.175 726.735 40.075C734.068 49.7917 738.651 61.8 740.485 76.1H702.535C700.151 67.1167 695.293 60.0583 687.96 54.925C680.81 49.6083 671.276 46.95 659.36 46.95C646.16 46.95 635.618 49.975 627.735 56.025C620.035 61.8917 614.443 69.5917 610.96 79.125C607.476 88.475 605.735 98.375 605.735 108.825C605.735 119.642 607.568 129.908 611.235 139.625C614.901 149.342 620.676 157.225 628.56 163.275C636.626 169.325 647.168 172.35 660.185 172.35C667.885 172.35 674.76 171.25 680.81 169.05C686.86 166.667 691.81 163.275 695.66 158.875C699.693 154.475 702.443 149.25 703.91 143.2H743.235C741.585 157.317 736.818 169.325 728.935 179.225C721.051 189.125 711.06 196.642 698.96 201.775C686.86 206.725 673.476 209.2 658.81 209.2ZM825.973 208.925C811.307 208.925 798.473 205.992 787.473 200.125C776.473 194.075 767.948 185.55 761.898 174.55C755.848 163.367 752.823 150.167 752.823 134.95C752.823 119.367 755.848 105.983 761.898 94.8C768.132 83.4333 776.748 74.725 787.748 68.675C798.748 62.625 811.398 59.6 825.698 59.6C840.365 59.6 853.107 62.7167 863.923 68.95C874.74 75.1833 883.173 83.8917 889.223 95.075C895.273 106.258 898.298 119.642 898.298 135.225C898.298 150.442 895.273 163.642 889.223 174.825C883.357 185.825 875.015 194.258 864.198 200.125C853.565 205.992 840.823 208.925 825.973 208.925ZM825.423 173.725C833.857 173.725 840.64 171.892 845.773 168.225C850.907 164.558 854.573 159.792 856.773 153.925C859.157 147.875 860.348 141.55 860.348 134.95C860.348 128.35 859.157 122.025 856.773 115.975C854.573 109.925 850.907 104.975 845.773 101.125C840.823 97.0917 834.04 95.075 825.423 95.075C817.173 95.075 810.482 97.0917 805.348 101.125C800.215 104.975 796.457 109.925 794.073 115.975C791.873 122.025 790.773 128.35 790.773 134.95C790.773 141.733 791.873 148.058 794.073 153.925C796.457 159.792 800.215 164.558 805.348 168.225C810.482 171.892 817.173 173.725 825.423 173.725ZM974.372 208.925C959.706 208.925 947.514 205.625 937.797 199.025C928.264 192.242 921.114 183.258 916.347 172.075C911.581 160.708 909.197 148.15 909.197 134.4C909.197 119.917 911.764 107.083 916.897 95.9C922.031 84.5333 929.639 75.6417 939.722 69.225C949.806 62.8083 962.364 59.6 977.397 59.6C982.531 59.6 987.572 60.2417 992.522 61.525C997.656 62.625 1002.33 64.3667 1006.55 66.75C1010.95 68.95 1014.71 71.8833 1017.82 75.55V12.3H1056.32V207H1018.92L1018.37 190.775C1015.07 194.992 1011.04 198.475 1006.27 201.225C1001.69 203.792 996.739 205.717 991.422 207C986.106 208.283 980.422 208.925 974.372 208.925ZM982.072 174.275C990.322 174.275 997.014 172.35 1002.15 168.5C1007.46 164.65 1011.41 159.7 1013.97 153.65C1016.54 147.6 1017.82 141.092 1017.82 134.125C1017.82 126.975 1016.54 120.467 1013.97 114.6C1011.59 108.55 1007.74 103.783 1002.42 100.3C997.289 96.6333 990.506 94.8 982.072 94.8C973.639 94.8 966.856 96.725 961.722 100.575C956.589 104.425 952.922 109.467 950.722 115.7C948.706 121.75 947.697 128.258 947.697 135.225C947.697 140.358 948.247 145.308 949.347 150.075C950.631 154.658 952.647 158.783 955.397 162.45C958.147 166.117 961.722 169.05 966.122 171.25C970.522 173.267 975.839 174.275 982.072 174.275ZM1144.6 208.925C1129.38 208.925 1116.46 205.9 1105.82 199.85C1095.19 193.8 1087.03 185.275 1081.35 174.275C1075.66 163.092 1072.82 150.075 1072.82 135.225C1072.82 120.192 1075.76 107.083 1081.62 95.9C1087.49 84.5333 1095.74 75.6417 1106.37 69.225C1117.19 62.8083 1129.93 59.6 1144.6 59.6C1155.6 59.6 1165.22 61.4333 1173.47 65.1C1181.91 68.7667 1188.96 73.9 1194.65 80.5C1200.51 87.1 1204.82 94.8 1207.57 103.6C1210.51 112.217 1211.88 121.567 1211.7 131.65C1211.7 134.217 1211.61 136.692 1211.42 139.075C1211.24 141.458 1210.87 143.842 1210.32 146.225H1111.05C1111.6 151.725 1113.16 156.767 1115.72 161.35C1118.29 165.933 1121.86 169.6 1126.45 172.35C1131.21 174.917 1137.08 176.2 1144.05 176.2C1148.63 176.2 1152.85 175.742 1156.7 174.825C1160.55 173.725 1163.85 172.075 1166.6 169.875C1169.35 167.675 1171.27 165.108 1172.37 162.175H1210.32C1207.94 172.992 1203.45 181.883 1196.85 188.85C1190.43 195.817 1182.64 200.95 1173.47 204.25C1164.31 207.367 1154.68 208.925 1144.6 208.925ZM1111.87 119.275H1174.85C1174.66 114.325 1173.38 109.742 1171 105.525C1168.8 101.125 1165.41 97.6417 1160.82 95.075C1156.42 92.325 1150.74 90.95 1143.77 90.95C1136.81 90.95 1130.94 92.325 1126.17 95.075C1121.59 97.825 1118.11 101.4 1115.72 105.8C1113.52 110.017 1112.24 114.508 1111.87 119.275Z"/>
<circle cx="528.5" cy="24.5" r="24.5" fill="#FE9332"/>
</svg>
